<svg xmlns="http://www.w3.org/2000/svg" width="16" height="16" viewBox="0 0 16 16" fill="none">
  <path fill="#E2E6EE" fill-rule="evenodd" clip-rule="evenodd" d="M5.39.305c.641-.266 1.34-.36 2.032-.278.887.102 1.68.48 2.375 1.133 1.012-.21 1.914-.129 2.777.266l.043.02.102.05a4.06 4.06 0 0 1 1.945 2.133c.188.45.281.922.281 1.414.016.367-.027.734-.117 1.09.55.633.914 1.3 1.078 2.031.254 1.266-.008 2.41-.789 3.426l-.12.144a4.042 4.042 0 0 1-1.958 1.235c-.242.558-.414.98-.73 1.398A4.026 4.026 0 0 1 9.012 16c-1.055-.004-1.992-.39-2.809-1.156-.437.09-.785.105-1.16.101a3.96 3.96 0 0 1-1.73-.414 4.098 4.098 0 0 1-1.434-1.187c-.133-.18-.266-.348-.367-.547a5.678 5.678 0 0 1-.328-.856 4.112 4.112 0 0 1-.012-2.043C.742 9.391.426 8.887.234 8.336a3.394 3.394 0 0 1-.222-1.059 4.474 4.474 0 0 1 .125-1.422c.3-.988.87-1.765 1.718-2.328.188-.125.364-.222.532-.293.191-.078.383-.144.574-.199.207-.582.457-1.07.797-1.496A4.013 4.013 0 0 1 5.39.305Zm-.535 5.234a.565.565 0 0 0-.773-.21.568.568 0 0 0-.21.769l1.132 1.976-1.129 1.903a.568.568 0 0 0 .21.753.573.573 0 0 0 .767-.18l1.293-2.179a.572.572 0 0 0 .003-.57Zm3.63 4.16a.565.565 0 0 0 0 1.13h3.234c.3-.017.539-.263.539-.567 0-.301-.238-.551-.54-.563Zm0 0"/>
</svg>
